<mxfile host="app.diagrams.net" agent="Mozilla/5.0 (Macintosh; Intel Mac OS X 10_15_7) AppleWebKit/537.36 (KHTML, like Gecko) Chrome/129.0.0.0 Safari/537.36" version="24.7.17">
  <diagram name="Page-1" id="dDfGnEF_FE_pk8DfvVs3">
    <mxGraphModel dx="1687" dy="964" grid="1" gridSize="10" guides="1" tooltips="1" connect="1" arrows="1" fold="1" page="1" pageScale="1" pageWidth="827" pageHeight="1169" math="0" shadow="0">
      <root>
        <mxCell id="0" />
        <mxCell id="1" parent="0" />
        <mxCell id="dvajzKGzWQ0eGu69V2dp-1" value="" style="rounded=1;whiteSpace=wrap;html=1;shadow=1;fillColor=#FFFFFF;strokeColor=#d79b00;fillStyle=auto;gradientColor=#FFFAC9;" vertex="1" parent="1">
          <mxGeometry x="40" y="190" width="720" height="490" as="geometry" />
        </mxCell>
        <mxCell id="dvajzKGzWQ0eGu69V2dp-8" style="edgeStyle=orthogonalEdgeStyle;rounded=0;orthogonalLoop=1;jettySize=auto;html=1;entryX=0;entryY=0.5;entryDx=0;entryDy=0;" edge="1" parent="1" target="dvajzKGzWQ0eGu69V2dp-5">
          <mxGeometry relative="1" as="geometry">
            <mxPoint x="210" y="300" as="sourcePoint" />
          </mxGeometry>
        </mxCell>
        <mxCell id="dvajzKGzWQ0eGu69V2dp-9" value="&lt;font face=&quot;Helvetica&quot;&gt;exe cloud fn&lt;/font&gt;" style="edgeLabel;html=1;align=center;verticalAlign=middle;resizable=0;points=[];" vertex="1" connectable="0" parent="dvajzKGzWQ0eGu69V2dp-8">
          <mxGeometry x="-0.3273" y="-1" relative="1" as="geometry">
            <mxPoint x="13" y="-1" as="offset" />
          </mxGeometry>
        </mxCell>
        <mxCell id="dvajzKGzWQ0eGu69V2dp-3" value="&lt;font face=&quot;Helvetica&quot;&gt;Storing Weather .txt files&lt;/font&gt;" style="rounded=1;whiteSpace=wrap;html=1;shadow=1;" vertex="1" parent="1">
          <mxGeometry x="70" y="260" width="140" height="80" as="geometry" />
        </mxCell>
        <mxCell id="dvajzKGzWQ0eGu69V2dp-5" value="- update weather data and analytics" style="rounded=1;whiteSpace=wrap;html=1;glass=0;shadow=1;" vertex="1" parent="1">
          <mxGeometry x="411" y="260" width="140" height="80" as="geometry" />
        </mxCell>
        <mxCell id="dvajzKGzWQ0eGu69V2dp-6" value="" style="sketch=0;points=[[0,0,0],[0.25,0,0],[0.5,0,0],[0.75,0,0],[1,0,0],[0,1,0],[0.25,1,0],[0.5,1,0],[0.75,1,0],[1,1,0],[0,0.25,0],[0,0.5,0],[0,0.75,0],[1,0.25,0],[1,0.5,0],[1,0.75,0]];outlineConnect=0;fontColor=#232F3E;fillColor=#7AA116;strokeColor=#ffffff;dashed=0;verticalLabelPosition=bottom;verticalAlign=top;align=center;html=1;fontSize=12;fontStyle=0;aspect=fixed;shape=mxgraph.aws4.resourceIcon;resIcon=mxgraph.aws4.s3;" vertex="1" parent="1">
          <mxGeometry x="110" y="322.5" width="40" height="40" as="geometry" />
        </mxCell>
        <mxCell id="dvajzKGzWQ0eGu69V2dp-7" value="" style="outlineConnect=0;dashed=0;verticalLabelPosition=bottom;verticalAlign=top;align=center;html=1;shape=mxgraph.aws3.lambda_function;fillColor=#F58534;gradientColor=none;" vertex="1" parent="1">
          <mxGeometry x="509" y="322.5" width="42" height="35" as="geometry" />
        </mxCell>
        <mxCell id="dvajzKGzWQ0eGu69V2dp-10" value="RDS" style="shape=cylinder3;whiteSpace=wrap;html=1;boundedLbl=1;backgroundOutline=1;size=15;shadow=1;" vertex="1" parent="1">
          <mxGeometry x="646" y="410" width="60" height="80" as="geometry" />
        </mxCell>
        <mxCell id="dvajzKGzWQ0eGu69V2dp-11" value="" style="outlineConnect=0;dashed=0;verticalLabelPosition=bottom;verticalAlign=top;align=center;html=1;shape=mxgraph.aws3.rds;fillColor=#2E73B8;gradientColor=none;" vertex="1" parent="1">
          <mxGeometry x="662" y="470" width="28" height="30" as="geometry" />
        </mxCell>
        <mxCell id="dvajzKGzWQ0eGu69V2dp-12" value="&lt;font style=&quot;&quot; face=&quot;Helvetica&quot;&gt;&lt;font style=&quot;font-size: 12px;&quot;&gt;django server&lt;br&gt;&lt;/font&gt;&lt;span style=&quot;font-size: 11px;&quot;&gt;1. serves weather data and analytics.&lt;/span&gt;&lt;br&gt;&lt;span style=&quot;font-size: 11px;&quot;&gt;2. Can run scripts to update the above using celery&lt;/span&gt;&lt;/font&gt;" style="rounded=1;whiteSpace=wrap;html=1;shadow=1;" vertex="1" parent="1">
          <mxGeometry x="260" y="410" width="300" height="80" as="geometry" />
        </mxCell>
        <mxCell id="dvajzKGzWQ0eGu69V2dp-14" style="edgeStyle=orthogonalEdgeStyle;rounded=0;orthogonalLoop=1;jettySize=auto;html=1;exitX=1;exitY=0.5;exitDx=0;exitDy=0;entryX=0;entryY=0.5;entryDx=0;entryDy=0;entryPerimeter=0;" edge="1" parent="1" source="dvajzKGzWQ0eGu69V2dp-12" target="dvajzKGzWQ0eGu69V2dp-10">
          <mxGeometry relative="1" as="geometry" />
        </mxCell>
        <mxCell id="dvajzKGzWQ0eGu69V2dp-15" value="read/write" style="edgeLabel;html=1;align=center;verticalAlign=middle;resizable=0;points=[];" vertex="1" connectable="0" parent="dvajzKGzWQ0eGu69V2dp-14">
          <mxGeometry x="-0.0727" relative="1" as="geometry">
            <mxPoint as="offset" />
          </mxGeometry>
        </mxCell>
        <mxCell id="dvajzKGzWQ0eGu69V2dp-16" style="edgeStyle=orthogonalEdgeStyle;rounded=0;orthogonalLoop=1;jettySize=auto;html=1;exitX=1;exitY=0.5;exitDx=0;exitDy=0;entryX=0.5;entryY=0;entryDx=0;entryDy=0;entryPerimeter=0;" edge="1" parent="1" source="dvajzKGzWQ0eGu69V2dp-5" target="dvajzKGzWQ0eGu69V2dp-10">
          <mxGeometry relative="1" as="geometry" />
        </mxCell>
        <mxCell id="dvajzKGzWQ0eGu69V2dp-17" value="read/write" style="edgeLabel;html=1;align=center;verticalAlign=middle;resizable=0;points=[];" vertex="1" connectable="0" parent="dvajzKGzWQ0eGu69V2dp-16">
          <mxGeometry x="-0.2308" relative="1" as="geometry">
            <mxPoint as="offset" />
          </mxGeometry>
        </mxCell>
        <mxCell id="dvajzKGzWQ0eGu69V2dp-20" value="" style="group" vertex="1" connectable="0" parent="1">
          <mxGeometry x="467.5" y="545" width="92.5" height="85" as="geometry" />
        </mxCell>
        <mxCell id="dvajzKGzWQ0eGu69V2dp-19" value="route 53" style="rounded=1;whiteSpace=wrap;html=1;shadow=1;" vertex="1" parent="dvajzKGzWQ0eGu69V2dp-20">
          <mxGeometry width="90" height="70" as="geometry" />
        </mxCell>
        <mxCell id="dvajzKGzWQ0eGu69V2dp-27" value="" style="sketch=0;points=[[0,0,0],[0.25,0,0],[0.5,0,0],[0.75,0,0],[1,0,0],[0,1,0],[0.25,1,0],[0.5,1,0],[0.75,1,0],[1,1,0],[0,0.25,0],[0,0.5,0],[0,0.75,0],[1,0.25,0],[1,0.5,0],[1,0.75,0]];outlineConnect=0;fontColor=#232F3E;fillColor=#8C4FFF;strokeColor=#ffffff;dashed=0;verticalLabelPosition=bottom;verticalAlign=top;align=center;html=1;fontSize=12;fontStyle=0;aspect=fixed;shape=mxgraph.aws4.resourceIcon;resIcon=mxgraph.aws4.route_53;" vertex="1" parent="dvajzKGzWQ0eGu69V2dp-20">
          <mxGeometry x="35" y="55" width="22.5" height="22.5" as="geometry" />
        </mxCell>
        <mxCell id="dvajzKGzWQ0eGu69V2dp-21" value="Load Balancer" style="rounded=1;whiteSpace=wrap;html=1;shadow=1;" vertex="1" parent="1">
          <mxGeometry x="270" y="545" width="90" height="70" as="geometry" />
        </mxCell>
        <mxCell id="dvajzKGzWQ0eGu69V2dp-22" value="" style="edgeStyle=orthogonalEdgeStyle;rounded=0;orthogonalLoop=1;jettySize=auto;html=1;" edge="1" parent="1" source="dvajzKGzWQ0eGu69V2dp-19" target="dvajzKGzWQ0eGu69V2dp-21">
          <mxGeometry relative="1" as="geometry" />
        </mxCell>
        <mxCell id="dvajzKGzWQ0eGu69V2dp-25" style="edgeStyle=orthogonalEdgeStyle;rounded=0;orthogonalLoop=1;jettySize=auto;html=1;exitX=0.5;exitY=0;exitDx=0;exitDy=0;entryX=0.181;entryY=0.984;entryDx=0;entryDy=0;entryPerimeter=0;" edge="1" parent="1" target="dvajzKGzWQ0eGu69V2dp-12">
          <mxGeometry relative="1" as="geometry">
            <mxPoint x="313.2399999999999" y="545" as="sourcePoint" />
            <mxPoint x="316.7399999999999" y="487.0400000000001" as="targetPoint" />
          </mxGeometry>
        </mxCell>
        <mxCell id="dvajzKGzWQ0eGu69V2dp-28" value="" style="shape=image;verticalLabelPosition=bottom;labelBackgroundColor=default;verticalAlign=top;aspect=fixed;imageAspect=0;image=data:image/png,iVBORw0KGgoAAAANSUhEUgAAAB0AAAAcCAYAAACdz7SqAAABX2lDQ1BJQ0MgUHJvZmlsZQAAKJFtkE1LAnEQxp81S7Agg07SwUtgsL1g4qGbGZmwh0UTK4ha120NfPm3uxLdO/UBwi9QRHTpZEdvfQCjoHOHjkHgpWyb/261Wg0Mz4+HmWFmAF9IYaziB1CtWUY2vRzZ2NyKBJ4RxDgmEEVCUU2WlGWJSvCtg9G9h8C1M8tnzTc+rpudwkg2fHl2Er3Y+Vs/EMGSZqqk75QJlRkWIMSJ5UOLcT4mnjRoKeImZ93lK85Fl9tOzXo2RXxHHFLLSon4iVgs9vl6H1crDfVrB779mFbL50jDlFOQkEYEGcjIka4iT46ENazQn/7vizt9KdTBcAQD+9BRhkXdSXIYKtCciTWomINIHMMCZZz/+/cfPe+A7lvKAL6q5+3KwM0LP9PzpkVa5RZobzPFUH6+K3T95t5izOXRFjB8atuvBSAwA/QebPutZdu9c2DokXq7n0FHY/zSiEkhAAAAVmVYSWZNTQAqAAAACAABh2kABAAAAAEAAAAaAAAAAAADkoYABwAAABIAAABEoAIABAAAAAEAAAAdoAMABAAAAAEAAAAcAAAAAEFTQ0lJAAAAU2NyZWVuc2hvdLqtVzsAAAHUaVRYdFhNTDpjb20uYWRvYmUueG1wAAAAAAA8eDp4bXBtZXRhIHhtbG5zOng9ImFkb2JlOm5zOm1ldGEvIiB4OnhtcHRrPSJYTVAgQ29yZSA2LjAuMCI+CiAgIDxyZGY6UkRGIHhtbG5zOnJkZj0iaHR0cDovL3d3dy53My5vcmcvMTk5OS8wMi8yMi1yZGYtc3ludGF4LW5zIyI+CiAgICAgIDxyZGY6RGVzY3JpcHRpb24gcmRmOmFib3V0PSIiCiAgICAgICAgICAgIHhtbG5zOmV4aWY9Imh0dHA6Ly9ucy5hZG9iZS5jb20vZXhpZi8xLjAvIj4KICAgICAgICAgPGV4aWY6UGl4ZWxZRGltZW5zaW9uPjI4PC9leGlmOlBpeGVsWURpbWVuc2lvbj4KICAgICAgICAgPGV4aWY6UGl4ZWxYRGltZW5zaW9uPjI5PC9leGlmOlBpeGVsWERpbWVuc2lvbj4KICAgICAgICAgPGV4aWY6VXNlckNvbW1lbnQ+U2NyZWVuc2hvdDwvZXhpZjpVc2VyQ29tbWVudD4KICAgICAgPC9yZGY6RGVzY3JpcHRpb24+CiAgIDwvcmRmOlJERj4KPC94OnhtcG1ldGE+Co42p74AAAO5SURBVEgN5VZNaxRBEK0Zc/AmKBiDCJpdYs7+ByEe/A0iCIJ4MEYDHrwYUFAUT4JBvfsDPATyMyRRsxuMkKz6A1TQzPheVVd1zybBWy422an+qK5Xr15PT6oWTQ651YeMp3ATDvr5Rk+qSqRCGrR1suPjuq6w3sLPbDnGVN5f9BnjyJ2BQ0mARpFbeEsrbbJVZ4wVFQM+sICNMfLgVHqUffrqyl7QpkkMLZo0sGTM7VqBGJufLuFBYDLXHiuAJKsaY2yiT61rjJPbHqaRVEpuf8YWXF30UTAmEoB9zW2GlFxeMqWOmTHcEGCccY1wJxZXZGKyX8bp9Juv6/Jj+bLUiNnwbMCWLZgytWAJj+h3NDWtCfjtbl/LXh44P0jHHuDQMB6R9FFCdpiyZMgqnUrS1FPMXWOMd+Zx0tPpZjjTnB3dpQjNLvrQNjTWWXtgqzVqp/oxM+3DoD/+O/18qHNTT4fK4uRjG9se19b3IYsUz3FoA7RpWmmAQE3dElDHmGvxm7q/qnsJzHaKwGjHF1bgx70of9IPXZtLVh3TIzQlS5YXf3jYcSeot7MvDGDrJrVscehYfrNTzwZCxt8X+1oF7uFeRrEYYFy0YNqmTDXjXcu6UWsZD6/3dBv9yMaYmeXCaKEXbDl25lapInusZdCkqWqrGfJdy5r0XhpTZt79GQvXWM8FUSMe/Q9gajrylSCTVs4tvZPZN0OZeT1UjT9dM6alxs6YGNu3yFRk8slA/uysB1P6MF7ZOppywTQQOXpmVtau+EegkvMAL9fdj4zYeLgIPLptmvPVYzO/LtMApX589/S1TEWnLvoOItEPV6dl+tGq9JcNXCOmx+/RhowezqkvA9h7a5YuHJcta8pZ1ctPHLNk37Sl3bx3UfdupFL74dpemlNGZGV7zI7Hc+BgqvogI71F/F0DU15zuICl0TUy5m3UCjXmGoHJRLOH9buad7TuScwdkDYz1SwxQ43QZwumibGdSJufeWU3kbHjnP+sUs64jGdRO3ev1z5rQU2ZALXmuWABXGMGsHNglwRWEmNuyIwZYFzTXF74stlpE/n55aNceLtpk/s8f22tMZzeYkTxfW7LamnmRYwMqjQym/fzlyxzsFR2ycanDGz0tGPRzkH1j+9xRs2gianfv54xtdFM1eZKMIT7Ujf1SjG45vtVU6fNBbQA5W1S/q/TsHSMlDSpEKV8j10nrQLBWAnYg77HjOQtQC0z1wZoKevIGFPGjGuqZmZjUxqTPvCMtdjviFz9b/7D/wuRhF2aR62lZwAAAABJRU5ErkJggg==;" vertex="1" parent="1">
          <mxGeometry x="350" y="480" width="29" height="28" as="geometry" />
        </mxCell>
        <mxCell id="dvajzKGzWQ0eGu69V2dp-29" value="" style="outlineConnect=0;dashed=0;verticalLabelPosition=bottom;verticalAlign=top;align=center;html=1;shape=mxgraph.aws3.application_load_balancer;fillColor=#F58536;gradientColor=none;" vertex="1" parent="1">
          <mxGeometry x="300" y="598" width="30" height="32" as="geometry" />
        </mxCell>
        <mxCell id="dvajzKGzWQ0eGu69V2dp-32" value="" style="edgeStyle=orthogonalEdgeStyle;rounded=0;orthogonalLoop=1;jettySize=auto;html=1;" edge="1" parent="1" source="dvajzKGzWQ0eGu69V2dp-31" target="dvajzKGzWQ0eGu69V2dp-27">
          <mxGeometry relative="1" as="geometry" />
        </mxCell>
        <mxCell id="dvajzKGzWQ0eGu69V2dp-33" value="/weather&lt;br&gt;/weather/stats" style="edgeLabel;html=1;align=center;verticalAlign=middle;resizable=0;points=[];" vertex="1" connectable="0" parent="dvajzKGzWQ0eGu69V2dp-32">
          <mxGeometry x="0.0074" y="1" relative="1" as="geometry">
            <mxPoint as="offset" />
          </mxGeometry>
        </mxCell>
        <mxCell id="dvajzKGzWQ0eGu69V2dp-31" value="users" style="sketch=0;outlineConnect=0;gradientColor=none;fontColor=#545B64;strokeColor=none;fillColor=#879196;dashed=0;verticalLabelPosition=bottom;verticalAlign=top;align=center;html=1;fontSize=12;fontStyle=0;aspect=fixed;shape=mxgraph.aws4.illustration_users;pointerEvents=1" vertex="1" parent="1">
          <mxGeometry x="498.75" y="700" width="30" height="30" as="geometry" />
        </mxCell>
        <mxCell id="dvajzKGzWQ0eGu69V2dp-34" value="" style="shape=image;verticalLabelPosition=bottom;labelBackgroundColor=default;verticalAlign=top;aspect=fixed;imageAspect=0;image=data:image/png,iVBORw0KGgoAAAANSUhEUgAAADUAAAAhCAYAAAB5oeP9AAABX2lDQ1BJQ0MgUHJvZmlsZQAAKJFtkE1LAnEQxp81S7Agg07SwUtgsL1g4qGbGZmwh0UTK4ha120NfPm3uxLdO/UBwi9QRHTpZEdvfQCjoHOHjkHgpWyb/261Wg0Mz4+HmWFmAF9IYaziB1CtWUY2vRzZ2NyKBJ4RxDgmEEVCUU2WlGWJSvCtg9G9h8C1M8tnzTc+rpudwkg2fHl2Er3Y+Vs/EMGSZqqk75QJlRkWIMSJ5UOLcT4mnjRoKeImZ93lK85Fl9tOzXo2RXxHHFLLSon4iVgs9vl6H1crDfVrB779mFbL50jDlFOQkEYEGcjIka4iT46ENazQn/7vizt9KdTBcAQD+9BRhkXdSXIYKtCciTWomINIHMMCZZz/+/cfPe+A7lvKAL6q5+3KwM0LP9PzpkVa5RZobzPFUH6+K3T95t5izOXRFjB8atuvBSAwA/QebPutZdu9c2DokXq7n0FHY/zSiEkhAAAAVmVYSWZNTQAqAAAACAABh2kABAAAAAEAAAAaAAAAAAADkoYABwAAABIAAABEoAIABAAAAAEAAAA1oAMABAAAAAEAAAAhAAAAAEFTQ0lJAAAAU2NyZWVuc2hvdHcd/B0AAAHUaVRYdFhNTDpjb20uYWRvYmUueG1wAAAAAAA8eDp4bXBtZXRhIHhtbG5zOng9ImFkb2JlOm5zOm1ldGEvIiB4OnhtcHRrPSJYTVAgQ29yZSA2LjAuMCI+CiAgIDxyZGY6UkRGIHhtbG5zOnJkZj0iaHR0cDovL3d3dy53My5vcmcvMTk5OS8wMi8yMi1yZGYtc3ludGF4LW5zIyI+CiAgICAgIDxyZGY6RGVzY3JpcHRpb24gcmRmOmFib3V0PSIiCiAgICAgICAgICAgIHhtbG5zOmV4aWY9Imh0dHA6Ly9ucy5hZG9iZS5jb20vZXhpZi8xLjAvIj4KICAgICAgICAgPGV4aWY6UGl4ZWxZRGltZW5zaW9uPjMzPC9leGlmOlBpeGVsWURpbWVuc2lvbj4KICAgICAgICAgPGV4aWY6UGl4ZWxYRGltZW5zaW9uPjUzPC9leGlmOlBpeGVsWERpbWVuc2lvbj4KICAgICAgICAgPGV4aWY6VXNlckNvbW1lbnQ+U2NyZWVuc2hvdDwvZXhpZjpVc2VyQ29tbWVudD4KICAgICAgPC9yZGY6RGVzY3JpcHRpb24+CiAgIDwvcmRmOlJERj4KPC94OnhtcG1ldGE+ChSWDzcAAAVsSURBVFgJ7VhrUJRVGH6+b5e7i+BdVk0u3ghBYNnlIjLZWCZaDmheoVBK6Yf+qJyarjZqo1iRheU4mmNBlljEhBBFWJhyvykgC4EFAgsICAixsLudc3JX9o/st5BMxjvzzXvO2fNenvf27S43112uwwNG/AOGh8EZB/Vfyep4psYzNYYRGC+/MQy+INP/70xxHId1a1fjixMfozA7HdWlvyEp4Ti8vTxYFGU+Xjhz6hMEByoMUeV5Hkdi9+HwgTcNZ3SxPCSI3Z0/z5WdR25ah5SvTzGdOVmpOHbkEKROM4xkhGxMztTC+W6I3f8Gpk2dgpTzGUjLyILHooXEuU+ZAw03GqHw80H0s5sN9t1cnbFm1QqEPxWK2bOcDOfPR22FzGcJVKoWbI/chL2vvwz1wACOn0pA5oVsTJhgB5m3l+G+0IXYVAFlTS38lj2BtpvtBpEAuS8SPzuKrRvDcfD9eFwpr4RC5gORSASNRgN/ArKZOO7o4AC5rzfqGxphZWUJX29P5OQV4FZXN7ZsCGM6n47YAa1Wa9A9koXJmaJODgVEjZYREJRmOc1k/KesbOa0p8citpf7LkFOfhFKyq7Cj6wp0QyJxWL8kPkL299obMZEewlWPf4oRKRcR4MEaVkw3xWv7dmNhJPxrCfeO/AW84H2DqUff/6VcZpBSpTnF5awx4/0HKUgfxnjGZkXGN8f+yH6+9X46PA+5JNepaVIS3wkZDKooAA50r9NRHCAAuWVVSwD15Q1zLa+bCqrqtHUrGK95Tx3DiZNckReQTHyCDAX54cwmewD5DKUXa2AqqWNyVIdikdCsWPXHmRfysXm9WuRdT4JSwPlZuMyuaditkdAp9MhbMt29Pb2MYO2tjbY/UI0Bklp6imDlNX6sDUIVMjQ0dGJmtrraCRANRotm3q0NA/FHdVfZ5zqo3L0OXn6DM5+fgw7t0Xg4qU8o3umbkzOlKWlJdNJh4CeorZuYEuHifb6IzK9LsLWxoZNtYLiMnZOna64pkRM9DOgpUqd19PQqUjPVC0toK8PEek7c8lkyaTk71mzxx18h005+l6iDjWrWklW/Fiptbd34HJeIXp6boOW35dnkw1+0d7aFrmRZa7u+p+G8/TkRFRUKskk7EJr202sXrmCTc+vzqUY7ghdiBymSt82RaicGFZW/455bi6YMX0q64sXX93LhkBRyRUU3skK7a9mEm3aK9+lpqO7u4epb25pBQV9jgSn7o96g0kKyJX0m71EgmVL/UFfHRHRu3A5t8BwR+iCexD/ozC5/IRGy9z7k6x1cHPUQUP+Dipp4UHmi2AaFpQVmQtPug0ipUaM/rtDTrCh4QS8p2vxikKNxVPuoqDAVp61wY0ebjhxo8+HnX56IKnhfdi2eAA2w4bBSL/Jm7ZeDlFp1nA/acueE1csICJYzPmSYdKgqLjJI7dJhJfkA9i5ZBDTbHVQk6w13eZBgjkqRIO10kWDGO8BNPbw4Akgr2laxBVYCNYvaFDYWeiwP1iNx+b+U4ed/RzS6kQoJbVfSYDXdpIeEIDyYVJqIbM1WD5HA/fJWnSpOcTmWeAbpRjvhqhR38UhvvhfBqUPWaBUg+c8B6GYadxkatIOVe08Gro50gc8iTjHHJOQ97ZUooV0gg5O5JFKKNfC5s57fJAEIqlKjA9IVroJMNrHp0P/QmSqtVl9LChTelB6TssjbB4B56TBHOKoUGogoBMrLHBOKWJg9PJujlryMwSovTVsy+tFjPiIQA3VRPuMgltAxvEskpXpdpTr4EhGdA+Jfmc/0N7HobqDR2krjyKVCNdvCZtqQ+3daz1qoO5l5H5/Zl5+77eXAu2NgxIYsDG7/jc5VwZRJqO1DQAAAABJRU5ErkJggg==;" vertex="1" parent="1">
          <mxGeometry x="379" y="170" width="53" height="33" as="geometry" />
        </mxCell>
        <mxCell id="dvajzKGzWQ0eGu69V2dp-35" value="" style="rounded=0;whiteSpace=wrap;html=1;fillColor=#D5E8D4;dashed=1;dashPattern=1 4;fillStyle=cross-hatch;" vertex="1" parent="1">
          <mxGeometry x="231" y="250" width="500" height="270" as="geometry" />
        </mxCell>
        <mxCell id="dvajzKGzWQ0eGu69V2dp-38" value="VPC" style="text;html=1;align=center;verticalAlign=middle;whiteSpace=wrap;rounded=0;" vertex="1" parent="1">
          <mxGeometry x="449" y="230" width="60" height="30" as="geometry" />
        </mxCell>
        <mxCell id="dvajzKGzWQ0eGu69V2dp-39" value="S3" style="text;html=1;align=center;verticalAlign=middle;whiteSpace=wrap;rounded=0;" vertex="1" parent="1">
          <mxGeometry x="60" y="260" width="60" height="30" as="geometry" />
        </mxCell>
        <mxCell id="dvajzKGzWQ0eGu69V2dp-40" value="Lambda" style="text;html=1;align=center;verticalAlign=middle;whiteSpace=wrap;rounded=0;" vertex="1" parent="1">
          <mxGeometry x="407.5" y="260" width="60" height="30" as="geometry" />
        </mxCell>
        <mxCell id="dvajzKGzWQ0eGu69V2dp-41" value="VM" style="text;html=1;align=center;verticalAlign=middle;whiteSpace=wrap;rounded=0;" vertex="1" parent="1">
          <mxGeometry x="250" y="410" width="60" height="30" as="geometry" />
        </mxCell>
      </root>
    </mxGraphModel>
  </diagram>
</mxfile>
